<svg width="28" height="26" viewBox="0 0 28 26" fill="none" xmlns="http://www.w3.org/2000/svg">
  <g filter="url(#filter_kolon_filled_heart)">
    <path d="M21.015 4.66895C20.3154 4.28091 19.5855 4.06009 18.8402 4.01074L18.5199 4C16.7748 4 15.1557 4.69823 13.9975 5.91113C12.8393 4.69845 11.2239 4 9.47893 4C8.62221 4.00008 7.78345 4.22544 6.98382 4.66895C5.43866 5.53007 4.38145 7.04872 4.0854 8.83398C3.77661 10.682 4.314 12.5381 5.55512 13.9268L14.0004 22L22.3969 13.9795L22.4457 13.9268C23.6868 12.5381 24.2216 10.682 23.9154 8.83398C23.6194 7.04616 22.5627 5.53009 21.015 4.66895Z" fill="#FF5757"/>
  </g>
  <defs>
    <filter id="filter_kolon_filled_heart" x="0" y="0" width="27.9998" height="26" filterUnits="userSpaceOnUse" color-interpolation-filters="sRGB">
      <feFlood flood-opacity="0" result="BackgroundImageFix"/>
      <feColorMatrix in="SourceAlpha" type="matrix" values="0 0 0 0 0 0 0 0 0 0 0 0 0 0 0 0 0 0 127 0" result="hardAlpha"/>
      <feOffset/>
      <feGaussianBlur stdDeviation="2"/>
      <feComposite in2="hardAlpha" operator="out"/>
      <feColorMatrix type="matrix" values="0 0 0 0 0 0 0 0 0 0 0 0 0 0 0 0 0 0 0.2 0"/>
      <feBlend mode="normal" in2="BackgroundImageFix" result="effect1_dropShadow_kolon_filled_heart"/>
      <feBlend mode="normal" in="SourceGraphic" in2="effect1_dropShadow_kolon_filled_heart" result="shape"/>
    </filter>
  </defs>
</svg>
